<svg width="21" height="21" viewBox="0 0 21 21" fill="none" xmlns="http://www.w3.org/2000/svg">
<path d="M10.7987 20.4764C5.29917 20.4764 0.822266 15.9995 0.822266 10.5C0.822266 5.00054 5.29917 0.523651 10.7987 0.523651C16.2981 0.523651 20.775 5.00054 20.775 10.5C20.775 15.9995 16.2981 20.4764 10.7987 20.4764ZM19.2121 11.8651C18.9211 11.7737 16.5766 11.0728 13.9046 11.501C15.0187 14.5637 15.4734 17.0578 15.5607 17.5766C16.5272 16.9242 17.3499 16.0809 17.9783 15.0987C18.6066 14.1164 19.0274 13.016 19.2146 11.8651H19.2121ZM14.1283 18.3564C14.0011 17.6082 13.5047 15.0043 12.3076 11.8967L12.2527 11.9133C7.4391 13.5885 5.71818 16.9223 5.56853 17.234C7.06019 18.4041 8.90205 19.0383 10.7978 19.0348C11.9784 19.0348 13.1007 18.7937 14.1233 18.358L14.1283 18.3564ZM4.4678 16.2115C4.66068 15.8789 6.99931 12.0089 11.3947 10.5873C11.507 10.5499 11.6192 10.5175 11.7314 10.4875C11.5153 10.0012 11.2825 9.51733 11.0397 9.04096C6.78316 10.3129 2.65626 10.2589 2.28214 10.2506L2.27882 10.51C2.27882 12.699 3.10852 14.6976 4.46864 16.209L4.4678 16.2115ZM2.4559 8.76661C2.83833 8.77326 6.34918 8.78823 10.3348 7.72907C9.37085 6.03082 8.31626 4.38567 7.17556 2.80075C5.98219 3.36258 4.93514 4.19312 4.11645 5.22729C3.29776 6.26146 2.72968 7.47118 2.45673 8.76162L2.4559 8.76661ZM8.80338 2.22961C9.03782 2.54553 10.5867 4.6522 11.9809 7.21778C15.0112 6.08297 16.2956 4.3579 16.4478 4.14008C14.8931 2.75321 12.882 1.98782 10.7987 1.99018C10.1128 1.99018 9.44353 2.07331 8.80338 2.22711V2.22961ZM17.3955 5.12524C17.2143 5.36634 15.7868 7.19783 12.6368 8.48395C12.8363 8.89132 13.0275 9.30284 13.2021 9.71935C13.2686 9.869 13.3268 10.0186 13.385 10.16C16.22 9.80249 19.0383 10.3761 19.321 10.4343C19.3044 8.42243 18.5894 6.5768 17.4005 5.13023L17.3955 5.12524Z" fill="#D6D6D6"/>
</svg>
