<svg width="21" height="21" viewBox="0 0 21 21" fill="none" xmlns="http://www.w3.org/2000/svg">
<path d="M10.8455 0.523651C8.13528 0.523651 7.79691 0.536122 6.73276 0.583509C5.67028 0.633391 4.94699 0.800495 4.31099 1.04741C3.65505 1.30181 3.09803 1.6435 2.54351 2.19802C1.98899 2.75253 1.64647 3.30872 1.3929 3.96549C1.14599 4.60149 0.97805 5.32477 0.928999 6.38725C0.879117 7.4514 0.869141 7.78976 0.869141 10.5C0.869141 13.2102 0.881611 13.5486 0.928999 14.6128C0.978881 15.6744 1.14599 16.3985 1.3929 17.0345C1.64338 17.7003 2.03604 18.3035 2.54351 18.802C3.04173 19.3098 3.64499 19.7025 4.31099 19.9526C4.94782 20.1987 5.67111 20.3674 6.73276 20.4165C7.79691 20.4664 8.13528 20.4764 10.8455 20.4764C13.5558 20.4764 13.8941 20.4639 14.9583 20.4165C16.0199 20.3666 16.7441 20.1987 17.3801 19.9526C18.0457 19.7018 18.6488 19.3092 19.1475 18.802C19.6555 18.3039 20.0483 17.7006 20.2982 17.0345C20.5442 16.3985 20.713 15.6744 20.7621 14.6128C20.8119 13.5486 20.8219 13.2102 20.8219 10.5C20.8219 7.78976 20.8094 7.4514 20.7621 6.38725C20.7122 5.3256 20.5442 4.60065 20.2982 3.96549C20.0476 3.29975 19.6549 2.69661 19.1475 2.19802C18.6497 1.68975 18.0463 1.29698 17.3801 1.04741C16.7441 0.800495 16.0199 0.63256 14.9583 0.583509C13.8941 0.533627 13.5558 0.523651 10.8455 0.523651ZM10.8455 2.31939C13.5084 2.31939 13.826 2.3327 14.8777 2.37842C15.8503 2.42415 16.3783 2.58543 16.7291 2.72344C17.1963 2.90384 17.5272 3.12 17.878 3.46834C18.2264 3.81751 18.4425 4.14922 18.623 4.61645C18.7593 4.96728 18.9222 5.4952 18.9663 6.46789C19.0137 7.5204 19.0245 7.83632 19.0245 10.5C19.0245 13.1637 19.012 13.4804 18.963 14.5321C18.9123 15.5048 18.7502 16.0327 18.613 16.3836C18.4507 16.8165 18.1956 17.2087 17.8656 17.5325C17.5431 17.8628 17.1512 18.1172 16.7183 18.2774C16.3691 18.4137 15.8329 18.5767 14.8602 18.6208C13.801 18.6681 13.4893 18.6789 10.8206 18.6789C8.15107 18.6789 7.83931 18.6665 6.78098 18.6174C5.80745 18.5667 5.27122 18.4046 4.92205 18.2674C4.48883 18.1071 4.09706 17.8517 3.77559 17.52C3.44187 17.1997 3.18592 16.8073 3.02737 16.3727C2.89019 16.0236 2.72891 15.4873 2.67819 14.5147C2.64078 13.4671 2.62748 13.1437 2.62748 10.4875C2.62748 7.8305 2.64078 7.50627 2.67819 6.44628C2.72891 5.47358 2.89019 4.93819 3.02737 4.58901C3.20195 4.11514 3.42559 3.79091 3.77559 3.4409C4.12394 3.09256 4.449 2.86809 4.92205 2.69434C5.27122 2.55633 5.79581 2.39422 6.76851 2.34434C7.8285 2.30692 8.14026 2.29445 10.8081 2.29445L10.8455 2.31939ZM10.8455 5.37715C10.1728 5.37715 9.50662 5.50965 8.88509 5.7671C8.26355 6.02455 7.69881 6.4019 7.22311 6.8776C6.74741 7.3533 6.37006 7.91804 6.11261 8.53957C5.85516 9.16111 5.72265 9.82726 5.72265 10.5C5.72265 11.1727 5.85516 11.8389 6.11261 12.4604C6.37006 13.082 6.74741 13.6467 7.22311 14.1224C7.69881 14.5981 8.26355 14.9755 8.88509 15.2329C9.50662 15.4904 10.1728 15.6229 10.8455 15.6229C12.2042 15.6229 13.5072 15.0831 14.4679 14.1224C15.4287 13.1617 15.9684 11.8587 15.9684 10.5C15.9684 9.14134 15.4287 7.83832 14.4679 6.8776C13.5072 5.91687 12.2042 5.37715 10.8455 5.37715ZM10.8455 13.8255C9.00821 13.8255 7.52007 12.3373 7.52007 10.5C7.52007 8.66269 9.00821 7.17455 10.8455 7.17455C12.6828 7.17455 14.171 8.66269 14.171 10.5C14.171 12.3373 12.6828 13.8255 10.8455 13.8255ZM17.3684 5.17513C17.3569 5.48491 17.2257 5.77816 17.0024 5.99324C16.7792 6.20833 16.4813 6.3285 16.1713 6.3285C15.8613 6.3285 15.5633 6.20833 15.3401 5.99324C15.1168 5.77816 14.9856 5.48491 14.9741 5.17513C14.9741 4.85762 15.1002 4.55312 15.3247 4.3286C15.5492 4.10409 15.8537 3.97796 16.1713 3.97796C16.4888 3.97796 16.7933 4.10409 17.0178 4.3286C17.2423 4.55312 17.3684 4.85762 17.3684 5.17513Z" fill="#D6D6D6"/>
</svg>
