<!-- <svg width="21" height="21" viewBox="0 0 21 21" fill="none" xmlns="http://www.w3.org/2000/svg">
<path d="M17.9149 17.5267H14.9603V12.8968C14.9603 11.7928 14.9378 10.372 13.4206 10.372C11.8801 10.372 11.6448 11.5733 11.6448 12.8153V17.5267H8.69011V8.00592H11.5284V9.30367H11.5666C11.9632 8.55545 12.9276 7.76565 14.3683 7.76565C17.3621 7.76565 17.9158 9.73598 17.9158 12.3007L17.9149 17.5267ZM5.35301 6.70317C5.12761 6.70328 4.9044 6.65894 4.69616 6.57268C4.48791 6.48642 4.29872 6.35994 4.13942 6.20048C3.98011 6.04103 3.85382 5.85171 3.76776 5.64339C3.68171 5.43506 3.63758 5.21181 3.63791 4.98641C3.63807 4.64703 3.73887 4.31532 3.92756 4.03323C4.11624 3.75113 4.38434 3.53133 4.69795 3.4016C5.01156 3.27188 5.3566 3.23807 5.68942 3.30444C6.02225 3.37081 6.32792 3.53438 6.56778 3.77448C6.80765 4.01457 6.97093 4.3204 7.03697 4.65329C7.10302 4.98618 7.06887 5.33118 6.93885 5.64466C6.80882 5.95815 6.58875 6.22603 6.30648 6.41444C6.0242 6.60286 5.69239 6.70333 5.35301 6.70317ZM6.83451 17.5267H3.87152V8.00592H6.83451V17.5267ZM19.3931 0.523651H2.38836C1.57446 0.523651 0.916016 1.16713 0.916016 1.96108V19.0389C0.916016 19.8337 1.57446 20.4764 2.38836 20.4764H19.3906C20.2037 20.4764 20.8688 19.8337 20.8688 19.0389V1.96108C20.8688 1.16713 20.2037 0.523651 19.3906 0.523651H19.3931Z" fill="#D6D6D6"/>
</svg> -->


<svg xmlns="http://www.w3.org/2000/svg" width="32" height="21" viewBox="0 0 32 21" fill="none">
  <path d="M9.23005 0.523651C10.164 0.523651 11.0127 0.603473 11.7843 0.773759C12.552 0.946705 13.2078 1.21278 13.7599 1.58528C14.3054 1.95778 14.7351 2.45001 15.0371 3.07528C15.3364 3.70055 15.4894 4.47215 15.4894 5.3768C15.4894 6.36126 15.2632 7.18608 14.8149 7.85126C14.3653 8.51644 13.7014 9.04858 12.8167 9.4743C14.022 9.82019 14.9134 10.4322 15.5067 11.2969C16.1027 12.1749 16.3914 13.2259 16.3914 14.4365C16.3914 15.4343 16.2184 16.2857 15.8459 17.0041C15.4734 17.7358 14.9546 18.3345 14.3027 18.8001C13.6642 19.2631 12.9058 19.5983 12.081 19.8205C11.2526 20.0447 10.3982 20.1583 9.54003 20.1584H0V0.532964H9.23005V0.523651ZM22.5363 16.7035C23.1217 17.2729 23.9638 17.5589 25.056 17.5589C25.841 17.5589 26.5194 17.362 27.0915 16.9642C27.6556 16.5784 27.9961 16.1527 28.1292 15.7137H31.5722C31.036 17.4165 30.1779 18.6405 29.0445 19.3722C27.9137 20.1172 26.5381 20.4764 24.947 20.4764C23.8334 20.4764 22.8397 20.3034 21.9244 19.9442C21.0635 19.6051 20.2838 19.0883 19.6361 18.4276C19.0025 17.749 18.5148 16.9476 18.2033 16.0729C17.8668 15.1549 17.7071 14.1439 17.7071 13.053C17.7071 11.9847 17.8867 11.0042 18.2433 10.0863C18.6025 9.15501 19.1 8.38341 19.7333 7.70492C20.3918 7.02644 21.1474 6.51425 22.0428 6.11648C22.9381 5.7187 23.9053 5.54043 24.9962 5.54043C26.2068 5.54043 27.2445 5.75861 28.1624 6.23621C29.0312 6.68019 29.7867 7.31733 30.3708 8.09871C30.9562 8.8783 31.3686 9.77496 31.6214 10.786C31.8741 11.7838 31.954 12.8348 31.9008 13.9523H21.6703C21.6703 15.0698 22.0428 16.1234 22.6148 16.6995L22.5084 16.7394L22.5363 16.7035ZM8.91343 16.77C9.33515 16.77 9.73825 16.7301 10.1187 16.6463C10.5045 16.5664 10.8478 16.4267 11.1338 16.2472C11.4132 16.0676 11.6526 15.8108 11.8256 15.4716C11.9985 15.1523 12.0784 14.7132 12.0784 14.1944C12.0784 13.1966 11.7857 12.4782 11.2269 12.0392C10.6549 11.6135 9.90987 11.4007 8.97862 11.4007H4.31037V16.7886H8.91343V16.7487V16.77ZM27.0157 9.25346C26.5474 8.74127 25.7651 8.46589 24.8113 8.46589C24.1886 8.46589 23.6738 8.56433 23.2601 8.78251C22.8583 8.98207 22.5284 9.24814 22.2756 9.56742C22.0228 9.88671 21.8539 10.206 21.7541 10.5652C21.6543 10.9111 21.5944 11.2304 21.5745 11.5097H27.9097C27.8165 10.512 27.4707 9.78028 27.005 9.26144V9.27474L27.0157 9.25346ZM8.67396 8.43529C9.43759 8.43529 10.0708 8.25702 10.5697 7.88718C11.0673 7.52799 11.3067 6.92932 11.3067 6.10716C11.3067 5.64952 11.2136 5.27569 11.0673 4.98168C10.8943 4.689 10.6682 4.46284 10.4021 4.30054C10.1227 4.13557 9.80344 4.02116 9.44424 3.95864C9.07572 3.89033 8.70152 3.85736 8.32674 3.86019H4.29707V8.43662H8.67396V8.43529ZM20.7776 1.83938H28.7172V3.77372H20.7776V1.82341V1.83671V1.83938Z" fill="#D6D6D6"/>
</svg>